<svg xmlns="http://www.w3.org/2000/svg" viewBox="0 0 960 640" font-family="Helvetica, Arial, sans-serif">
<defs>
<marker id="ab" markerWidth="10" markerHeight="7" refX="9" refY="3.5" orient="auto"><polygon points="0 0, 10 3.5, 0 7" fill="#2563eb"/></marker>
<marker id="ag" markerWidth="10" markerHeight="7" refX="9" refY="3.5" orient="auto"><polygon points="0 0, 10 3.5, 0 7" fill="#059669"/></marker>
<marker id="ao" markerWidth="10" markerHeight="7" refX="9" refY="3.5" orient="auto"><polygon points="0 0, 10 3.5, 0 7" fill="#ea580c"/></marker>
<marker id="ay" markerWidth="10" markerHeight="7" refX="9" refY="3.5" orient="auto"><polygon points="0 0, 10 3.5, 0 7" fill="#6b7280"/></marker>
</defs>
<rect width="960" height="640" fill="#ffffff"/>
<text x="480" y="34" text-anchor="middle" font-size="18" font-weight="bold" fill="#111827">ScholarStack — System Architecture</text>
<circle cx="90" cy="78" r="12" fill="none" stroke="#111827" stroke-width="2"/>
<line x1="90" y1="90" x2="90" y2="112" stroke="#111827" stroke-width="2"/>
<line x1="78" y1="100" x2="102" y2="100" stroke="#111827" stroke-width="2"/>
<text x="90" y="130" text-anchor="middle" font-size="13" fill="#111827">Student</text>
<path d="M 180,62 h 92 l 14,14 v 34 h -106 z" fill="#eff6ff" stroke="#2563eb" stroke-width="1.5"/>
<path d="M 272,62 v 14 h 14" fill="none" stroke="#2563eb" stroke-width="1.5"/>
<text x="233" y="92" text-anchor="middle" font-size="12" fill="#1e40af">session.bib</text>
<path d="M 300,62 h 92 l 14,14 v 34 h -106 z" fill="#eff6ff" stroke="#2563eb" stroke-width="1.5"/>
<path d="M 392,62 v 14 h 14" fill="none" stroke="#2563eb" stroke-width="1.5"/>
<text x="353" y="92" text-anchor="middle" font-size="12" fill="#1e40af">sources/</text>
<path d="M 420,62 h 92 l 14,14 v 34 h -106 z" fill="#eff6ff" stroke="#2563eb" stroke-width="1.5"/>
<path d="M 512,62 v 14 h 14" fill="none" stroke="#2563eb" stroke-width="1.5"/>
<text x="473" y="92" text-anchor="middle" font-size="12" fill="#1e40af">PaperSpine spine</text>
<rect x="200" y="150" width="330" height="50" rx="10" fill="#f0fdf4" stroke="#059669" stroke-width="2"/>
<rect x="204" y="154" width="322" height="42" rx="8" fill="none" stroke="#059669" stroke-width="1"/>
<text x="365" y="172" text-anchor="middle" font-size="14" font-weight="bold" fill="#065f46">scholarstack.py</text>
<text x="365" y="189" text-anchor="middle" font-size="11" fill="#065f46">single-entry chain — gates non-skippable</text>
<line x1="110" y1="100" x2="176" y2="88" stroke="#6b7280" stroke-width="1.5" stroke-dasharray="4,2"/>
<line x1="233" y1="112" x2="300" y2="148" stroke="#2563eb" stroke-width="2" marker-end="url(#ab)"/>
<line x1="353" y1="112" x2="365" y2="148" stroke="#2563eb" stroke-width="2" marker-end="url(#ab)"/>
<line x1="473" y1="112" x2="430" y2="148" stroke="#2563eb" stroke-width="2" marker-end="url(#ab)"/>
<rect x="60" y="260" width="230" height="70" rx="8" fill="#fff7ed" stroke="#ea580c" stroke-width="2"/>
<text x="175" y="283" text-anchor="middle" font-size="13" font-weight="bold" fill="#9a3412">Citation Verification Gate</text>
<text x="175" y="300" text-anchor="middle" font-size="11" fill="#9a3412">CrossRef → DataCite → OpenAlex</text>
<text x="175" y="315" text-anchor="middle" font-size="11" fill="#9a3412">mechanical — no LLM</text>
<rect x="340" y="260" width="170" height="70" rx="8" fill="#f5f3ff" stroke="#7c3aed" stroke-width="2"/>
<text x="425" y="288" text-anchor="middle" font-size="13" font-weight="bold" fill="#5b21b6">Ingest</text>
<text x="425" y="306" text-anchor="middle" font-size="11" fill="#5b21b6">MarkItDown → Markdown</text>
<path d="M 570,268 a 85,12 0 0 0 170,0 v 54 a 85,12 0 0 1 -170,0 z" fill="#eff6ff" stroke="#2563eb" stroke-width="2"/>
<ellipse cx="655" cy="268" rx="85" ry="12" fill="#dbeafe" stroke="#2563eb" stroke-width="2"/>
<text x="655" y="298" text-anchor="middle" font-size="13" font-weight="bold" fill="#1e40af">LightRAG</text>
<text x="655" y="314" text-anchor="middle" font-size="11" fill="#1e40af">knowledge graph · bge-m3</text>
<line x1="290" y1="200" x2="200" y2="256" stroke="#2563eb" stroke-width="2" marker-end="url(#ab)"/>
<line x1="400" y1="200" x2="422" y2="256" stroke="#2563eb" stroke-width="2" marker-end="url(#ab)"/>
<line x1="510" y1="290" x2="566" y2="290" stroke="#7c3aed" stroke-width="2" marker-end="url(#ab)"/>
<text x="538" y="282" text-anchor="middle" font-size="11" fill="#5b21b6">insert</text>
<rect x="170" y="410" width="300" height="76" rx="10" fill="#eff6ff" stroke="#2563eb" stroke-width="2.5"/>
<text x="320" y="437" text-anchor="middle" font-size="14" font-weight="bold" fill="#1e40af">Manuscript Pipeline</text>
<text x="320" y="455" text-anchor="middle" font-size="11" fill="#1e40af">stages 4–10 · deepseek-v4-pro</text>
<text x="320" y="471" text-anchor="middle" font-size="11" fill="#1e40af">[@key] citation gate per stage</text>
<rect x="560" y="416" width="180" height="64" rx="8" fill="#fef2f2" stroke="#dc2626" stroke-width="2" stroke-dasharray="6,3"/>
<text x="650" y="442" text-anchor="middle" font-size="13" font-weight="bold" fill="#991b1b">CritiqueBot</text>
<text x="650" y="460" text-anchor="middle" font-size="11" fill="#991b1b">Claude — adversarial review</text>
<line x1="175" y1="330" x2="255" y2="406" stroke="#2563eb" stroke-width="2.5" marker-end="url(#ab)"/>
<text x="168" y="372" text-anchor="middle" font-size="11" fill="#1e40af">verified pool</text>
<line x1="600" y1="334" x2="420" y2="408" stroke="#059669" stroke-width="2" marker-end="url(#ag)"/>
<text x="540" y="368" text-anchor="middle" font-size="11" fill="#065f46">grounded context</text>
<text x="505" y="382" text-anchor="middle" font-size="10" fill="#065f46">(Gate 2.5 coverage check)</text>
<line x1="470" y1="436" x2="556" y2="436" stroke="#ea580c" stroke-width="1.5" marker-end="url(#ao)"/>
<line x1="556" y1="462" x2="470" y2="462" stroke="#ea580c" stroke-width="1.5" marker-end="url(#ao)"/>
<text x="513" y="428" text-anchor="middle" font-size="11" fill="#9a3412">draft</text>
<text x="513" y="478" text-anchor="middle" font-size="11" fill="#9a3412">verdict</text>
<path d="M 280,526 h 66 l 14,14 v 48 h -80 z" fill="#f0fdf4" stroke="#059669" stroke-width="2"/>
<path d="M 346,526 v 14 h 14" fill="none" stroke="#059669" stroke-width="2"/>
<text x="320" y="564" text-anchor="middle" font-size="13" font-weight="bold" fill="#065f46">paper.pdf</text>
<line x1="320" y1="486" x2="320" y2="522" stroke="#2563eb" stroke-width="2" marker-end="url(#ab)"/>
<text x="440" y="516" text-anchor="middle" font-size="11" fill="#1e40af">consistency check · pandoc+tectonic</text>
<path d="M 790,530 a 65,10 0 0 0 130,0 v 44 a 65,10 0 0 1 -130,0 z" fill="#f9fafb" stroke="#6b7280" stroke-width="1.5"/>
<ellipse cx="855" cy="530" rx="65" ry="10" fill="#f3f4f6" stroke="#6b7280" stroke-width="1.5"/>
<text x="855" y="556" text-anchor="middle" font-size="12" font-weight="bold" fill="#374151">audit.jsonl</text>
<text x="855" y="571" text-anchor="middle" font-size="10" fill="#374151">every gate decision</text>
<path d="M 130,330 V 497 H 700 L 800,533" fill="none" stroke="#6b7280" stroke-width="1.5" stroke-dasharray="4,2" marker-end="url(#ay)"/>
<line x1="650" y1="480" x2="800" y2="522" stroke="#6b7280" stroke-width="1.5" stroke-dasharray="4,2" marker-end="url(#ay)"/>
<rect x="60" y="596" width="560" height="34" rx="6" fill="#f9fafb" stroke="#e5e7eb"/>
<line x1="75" y1="613" x2="105" y2="613" stroke="#2563eb" stroke-width="2" marker-end="url(#ab)"/>
<text x="112" y="617" font-size="11" fill="#374151">data flow</text>
<line x1="185" y1="613" x2="215" y2="613" stroke="#059669" stroke-width="2" marker-end="url(#ag)"/>
<text x="222" y="617" font-size="11" fill="#374151">retrieval</text>
<line x1="300" y1="613" x2="330" y2="613" stroke="#ea580c" stroke-width="1.5" marker-end="url(#ao)"/>
<text x="337" y="617" font-size="11" fill="#374151">critique loop</text>
<line x1="430" y1="613" x2="460" y2="613" stroke="#6b7280" stroke-width="1.5" stroke-dasharray="4,2" marker-end="url(#ay)"/>
<text x="467" y="617" font-size="11" fill="#374151">audit trail</text>
</svg>